# xmcd
#
# Track frame offsets:
#	150
#	15820
#	28092
#	41700
#	54827
#	67835
#	82705
#	97357
#	109447
#	122707
#	141207
#	150882
#
# Disc length: 2160 seconds
#
# Revision: 2
# Processed by: cddbd v1.4PL0 Copyright (c) Steve Scherf et al.
# Submitted via: EasyCDDAExtractor 5.0.7
#
DISCID=8d086e0c
DTITLE=Smoky Mountain Hymns - Smoky Mountain Sunday
DYEAR=1993
DGENRE=Bluegrass
TTITLE0=Bringing in the Sheaves
TTITLE1=Swing Low, Sweet Chariot
TTITLE2=Gospel Train
TTITLE3=What Wondrous Love is This
TTITLE4=At the Cross/On Jordan's Stormy Banks
TTITLE5=Sweet Hour of Prayer
TTITLE6=This is my Father's World/He's Got the Whole World in his Hands
TTITLE7=Rise Up
TTITLE8=In the Garden
TTITLE9=I Love to Tell The Story
TTITLE10=Simple Gifts
TTITLE11=My Savior's Love
EXTD=
EXTT0=
EXTT1=
EXTT2=
EXTT3=
EXTT4=
EXTT5=
EXTT6=
EXTT7=
EXTT8=
EXTT9=
EXTT10=
EXTT11=
PLAYORDER=
